<svg width="50" height="50" viewBox="0 0 50 50" fill="none" xmlns="http://www.w3.org/2000/svg">
<path d="M18.9378 10.5C21.6321 5.83333 28.3679 5.83333 31.0622 10.5L40.5885 27C43.2828 31.6667 39.9149 37.5 34.5263 37.5H15.4737C10.0851 37.5 6.71724 31.6667 9.41154 27L18.9378 10.5Z" fill="white"/>
<path d="M27.3108 17.1164L27.0508 26.8164H25.1508L24.8908 17.1164H27.3108ZM26.1708 31.1564C25.7575 31.1564 25.4108 31.0164 25.1308 30.7364C24.8508 30.4564 24.7108 30.1097 24.7108 29.6964C24.7108 29.283 24.8508 28.9364 25.1308 28.6564C25.4108 28.3764 25.7575 28.2364 26.1708 28.2364C26.5708 28.2364 26.9108 28.3764 27.1908 28.6564C27.4708 28.9364 27.6108 29.283 27.6108 29.6964C27.6108 30.1097 27.4708 30.4564 27.1908 30.7364C26.9108 31.0164 26.5708 31.1564 26.1708 31.1564Z" fill="black"/>
</svg>
